<svg width="24" height="15" viewBox="0 0 24 15" fill="none" xmlns="http://www.w3.org/2000/svg">
<mask id="path-1-inside-1_2731_351" fill="white">
<path d="M17.966 2.8125C16.5059 1.04513 14.3019 0 12 0C9.69806 0 7.49414 1.04513 6.03398 2.8125H1C0.447716 2.8125 0 3.26022 0 3.8125V10.25C0 10.8023 0.447715 11.25 1 11.25H6.03398C7.49414 13.0174 9.69806 14.0625 12 14.0625C14.3019 14.0625 16.5059 13.0174 17.966 11.25H23C23.5523 11.25 24 10.8023 24 10.25V3.8125C24 3.26022 23.5523 2.8125 23 2.8125H17.966ZM12 12.6562C8.4382 12.6562 6.80658 9.91209 6.72656 9.84375H1.40625V4.21875H6.72656C6.8123 4.14403 8.34488 1.55184 11.7443 1.41216L8.6111 4.54535C8.33651 4.81994 8.3365 5.26513 8.61108 5.53973V5.53973C9.29653 6.22519 10.1966 6.56784 11.097 6.5678C11.9835 6.5677 12.8698 6.23461 13.5511 5.56997L16.7564 10.5007C15.563 11.8581 13.8191 12.6562 12 12.6562ZM22.5938 9.84375H18.0066L16.1199 6.94139C16.2943 6.96769 16.4717 6.98128 16.6514 6.98128C17.3531 6.98128 18.0234 6.77707 18.5945 6.39678C18.9177 6.18155 18.9146 5.72898 18.6401 5.4544V5.4544C18.3655 5.17981 17.9225 5.19412 17.5734 5.36406C17.2897 5.50212 16.9761 5.57503 16.6514 5.57503C16.0879 5.57503 15.5582 5.35561 15.1598 4.95722L13.6683 3.46566L12.5886 4.54533C11.9405 5.19352 10.972 5.33091 10.1879 4.95731L13.5447 1.60045C16.0661 2.2403 17.1579 4.10672 17.2735 4.2187H22.5938V9.84375Z"/>
</mask>
<path d="M17.966 2.8125C16.5059 1.04513 14.3019 0 12 0C9.69806 0 7.49414 1.04513 6.03398 2.8125H1C0.447716 2.8125 0 3.26022 0 3.8125V10.25C0 10.8023 0.447715 11.25 1 11.25H6.03398C7.49414 13.0174 9.69806 14.0625 12 14.0625C14.3019 14.0625 16.5059 13.0174 17.966 11.25H23C23.5523 11.25 24 10.8023 24 10.25V3.8125C24 3.26022 23.5523 2.8125 23 2.8125H17.966ZM12 12.6562C8.4382 12.6562 6.80658 9.91209 6.72656 9.84375H1.40625V4.21875H6.72656C6.8123 4.14403 8.34488 1.55184 11.7443 1.41216L8.6111 4.54535C8.33651 4.81994 8.3365 5.26513 8.61108 5.53973V5.53973C9.29653 6.22519 10.1966 6.56784 11.097 6.5678C11.9835 6.5677 12.8698 6.23461 13.5511 5.56997L16.7564 10.5007C15.563 11.8581 13.8191 12.6562 12 12.6562ZM22.5938 9.84375H18.0066L16.1199 6.94139C16.2943 6.96769 16.4717 6.98128 16.6514 6.98128C17.3531 6.98128 18.0234 6.77707 18.5945 6.39678C18.9177 6.18155 18.9146 5.72898 18.6401 5.4544V5.4544C18.3655 5.17981 17.9225 5.19412 17.5734 5.36406C17.2897 5.50212 16.9761 5.57503 16.6514 5.57503C16.0879 5.57503 15.5582 5.35561 15.1598 4.95722L13.6683 3.46566L12.5886 4.54533C11.9405 5.19352 10.972 5.33091 10.1879 4.95731L13.5447 1.60045C16.0661 2.2403 17.1579 4.10672 17.2735 4.2187H22.5938V9.84375Z" stroke="#021B51" stroke-width="2" mask="url(#path-1-inside-1_2731_351)"/>
</svg>
