<svg width="160" height="30" viewBox="0 0 160 30" fill="none" xmlns="http://www.w3.org/2000/svg">
<path d="M54.3431 7.02765C56.8158 7.02765 58.3367 8.03781 58.7731 8.36491L60.43 5.36009C59.5604 4.70589 57.4671 3.50333 54.128 3.50333C48.0158 3.50333 43.9684 7.79088 43.9684 13.3644C43.9684 18.909 47.9905 23.1998 54.128 23.1998C57.5525 23.1998 59.5604 22.0261 60.43 21.3687L58.7984 18.3927C58.3083 18.7198 56.8158 19.6755 54.3431 19.6755C50.3778 19.6755 47.8229 17.1613 47.8229 13.3387C47.8229 9.51296 50.4031 7.02765 54.3431 7.02765Z" fill="#00AD8C"/>
<path d="M70.5644 11.5927C69.6411 10.7461 68.3352 10.1465 66.6782 10.1465C63.2285 10.1465 60.5913 12.9589 60.5913 16.6756C60.5913 20.3923 63.1462 23.2047 66.596 23.2047C68.4427 23.2047 69.8023 22.3838 70.7257 21.2389L70.8616 22.961H74.0142V10.3902H70.7257L70.5644 11.5927ZM67.3834 19.9498C65.562 19.9498 64.1771 18.5292 64.1771 16.6724C64.1771 14.7868 65.562 13.395 67.3834 13.395C69.3407 13.395 70.5897 14.7611 70.5897 16.6724C70.6182 18.558 69.3407 19.9498 67.3834 19.9498Z" fill="#00AD8C"/>
<path d="M81.2108 13.0134C82.5957 13.0134 83.927 13.504 85.04 14.2159L86.4534 11.5671C85.3404 10.8007 83.4368 10.1465 81.2898 10.1465C78.1373 10.1465 76.0725 11.705 76.0725 14.1069C76.0725 16.5922 78.4377 17.4933 80.5562 18.0129C82.2131 18.3945 82.8108 18.6959 82.8108 19.3501C82.8108 20.0043 82.2669 20.3346 81.2361 20.3346C79.5254 20.3346 77.9475 19.6804 76.9989 18.9685L75.5317 21.6174C76.8345 22.5185 78.7096 23.2015 80.8851 23.2015C84.5246 23.2015 86.4534 21.534 86.4534 19.132C86.4534 16.4832 84.3064 15.7168 82.2701 15.2261C80.395 14.79 79.7436 14.5719 79.7436 13.9434C79.7436 13.3116 80.3159 13.0134 81.2108 13.0134Z" fill="#00AD8C"/>
<path d="M102.672 23.2048C101.862 23.2048 101.189 22.6211 101.043 21.8515C101.043 21.8451 101.04 21.8386 101.04 21.8322C101.034 21.8034 101.031 21.7745 101.027 21.7456C101.024 21.7007 101.021 21.6591 101.018 21.6366V21.3897C101.018 21.3897 101.018 21.3897 101.018 21.3865V16.0182C101.018 12.4939 98.7096 10.1465 95.3926 10.1465C93.761 10.1465 92.5657 10.7205 91.8068 11.5126V3.45056H88.2463V22.9546H91.8068V16.3998C91.8068 14.7323 92.8946 13.3661 94.6874 13.3661C96.3191 13.3661 97.4574 14.6232 97.4574 16.5089V21.5693H97.4606C97.4858 24.4458 99.81 26.7708 102.678 26.7708C102.681 26.7708 102.684 26.7708 102.687 26.7708V23.2048C102.681 23.2048 102.675 23.2048 102.672 23.2048Z" fill="#00AD8C"/>
<path d="M118.567 10.1433C114.817 10.1433 111.804 12.9557 111.804 16.6724C111.804 20.3892 114.82 23.2016 118.567 23.2016C122.318 23.2016 125.331 20.3892 125.331 16.6724C125.331 12.9557 122.318 10.1433 118.567 10.1433ZM118.567 19.9498C116.775 19.9498 115.39 18.5035 115.39 16.6724C115.39 14.8702 116.775 13.395 118.567 13.395C120.389 13.395 121.745 14.8702 121.745 16.6724C121.748 18.5035 120.389 19.9498 118.567 19.9498Z" fill="#021B51"/>
<path d="M134.245 10.1433C132.098 10.1433 130.548 11.317 130.115 12.8467L129.979 10.387H127.016V22.9514H130.577V16.6468C130.577 14.8702 131.801 13.5586 133.783 13.5586C134.352 13.5586 134.681 13.6676 135.032 13.8055L135.333 10.2555C135.004 10.1721 134.624 10.1433 134.245 10.1433Z" fill="#021B51"/>
<path d="M142.587 13.395C143.889 13.395 144.759 13.86 145.331 14.2416L146.77 11.5382C146.036 11.0187 144.651 10.1465 142.179 10.1465C138.267 10.1465 135.304 13.0134 135.304 16.6756C135.304 20.3635 138.185 23.2047 142.179 23.2047C144.651 23.2047 145.983 22.2748 146.745 21.7841L145.331 19.1064C144.762 19.488 143.918 19.953 142.533 19.953C140.386 19.953 138.947 18.5869 138.947 16.6756C138.947 14.7643 140.411 13.395 142.587 13.395Z" fill="#021B51"/>
<path d="M160 16.7013C160 12.93 157.556 10.1465 153.777 10.1465C149.948 10.1465 147.257 13.0134 147.257 16.6756C147.257 20.3635 150.163 23.2047 154.131 23.2047C156.983 23.2047 158.533 22.1657 159.295 21.4827L157.828 18.914C157.284 19.3501 156.332 20.1967 154.514 20.1967C152.557 20.1967 151.172 19.1032 150.764 17.6569H159.946C159.946 17.6569 160 17.163 160 16.7013ZM150.789 15.3608C151.197 13.8023 152.364 12.9845 153.913 12.9845C155.326 12.9845 156.44 13.9402 156.604 15.3608H150.789V15.3608Z" fill="#021B51"/>
<path d="M107.892 9.10743C107.892 7.2218 109.088 6.48423 110.311 6.48423C111.153 6.48423 111.589 6.75681 111.832 6.8947L113.192 4.21699C112.594 3.80651 111.56 3.23248 109.904 3.23248C106.372 3.23248 104.335 5.41635 104.335 8.91502V10.3902H102.602V13.395H104.335V21.5468H104.332C104.326 22.4575 103.595 23.1951 102.691 23.2047V26.7676C105.559 26.7611 107.886 24.4266 107.899 21.5436H107.896V13.395H111.646V10.3902H107.896V9.10743H107.892Z" fill="#021B51"/>
<path d="M29.5241 10.5473C29.404 10.8327 29.1321 11.0187 28.8285 11.0219C28.8253 11.0219 28.8253 11.0219 28.8253 11.0219H19.7819L11.9337 18.9813H9.80247L18.9408 9.71355C19.0831 9.57244 19.276 9.49227 19.4688 9.49227H27.0072L19.1558 1.52967H2.5772L10.6436 9.71355C10.9376 10.0118 10.9376 10.4992 10.6467 10.7975L2.5772 18.9813H9.79931C9.49575 18.9813 9.22382 19.1673 9.10366 19.456C8.98666 19.7414 9.05307 20.0685 9.26809 20.2865L9.48627 20.5078H0.752697C0.449141 20.5078 0.174043 20.3218 0.0570473 20.0332C-0.0599484 19.7446 0.00645458 19.4175 0.224636 19.1994L9.04674 10.2523L0.224636 1.30519C0.00645458 1.09033 -0.0599484 0.76323 0.0570473 0.474614C0.177205 0.185997 0.449141 0 0.752697 0H19.4657C19.6617 0 19.8546 0.0801712 19.9969 0.221273L29.1415 9.49227L29.3597 9.71355C29.5747 9.93802 29.6411 10.2619 29.5241 10.5473Z" fill="#00AD8C"/>
<path d="M38.5741 29.5254C38.4539 29.814 38.1788 30 37.8753 30H19.1559C18.9599 30 18.767 29.9198 18.6279 29.7787L9.48957 20.5109L9.27139 20.2896C9.05637 20.0716 8.98997 19.7445 9.10696 19.4591C9.22712 19.1705 9.49906 18.9845 9.80261 18.9845H18.8461L26.6943 11.0219H28.8255C28.8286 11.0219 28.8286 11.0219 28.8286 11.0219L19.6903 20.2896C19.5386 20.4372 19.352 20.5109 19.1559 20.5109H11.6208L19.4721 28.4735H36.0539L27.9844 20.2896C27.8421 20.1453 27.7662 19.9529 27.7662 19.7477C27.7662 19.5425 27.8452 19.35 27.9844 19.2057L36.0539 11.0219H28.8286C29.1322 11.0186 29.4041 10.8327 29.5243 10.5472C29.6381 10.2618 29.5749 9.93794 29.3599 9.71346L29.1417 9.49219H37.8721C38.1756 9.49219 38.4507 9.67818 38.5709 9.96359C38.6879 10.2522 38.6215 10.5793 38.4065 10.8006L29.5844 19.7477L38.4065 28.6948C38.6215 28.9129 38.6879 29.24 38.5741 29.5254Z" fill="#021B51"/>
</svg>
