<svg width="39" height="30" viewBox="0 0 39 30" fill="none" xmlns="http://www.w3.org/2000/svg">
<path d="M29.5241 10.5473C29.404 10.8327 29.1321 11.0187 28.8285 11.0219C28.8253 11.0219 28.8253 11.0219 28.8253 11.0219H19.7819L11.9337 18.9813H9.80247L18.9408 9.71355C19.0831 9.57244 19.276 9.49227 19.4688 9.49227H27.0072L19.1558 1.52967H2.5772L10.6436 9.71355C10.9376 10.0118 10.9376 10.4992 10.6467 10.7975L2.5772 18.9813H9.79931C9.49575 18.9813 9.22382 19.1673 9.10366 19.456C8.98666 19.7414 9.05307 20.0685 9.26809 20.2865L9.48627 20.5078H0.752697C0.449141 20.5078 0.174043 20.3218 0.0570473 20.0332C-0.0599484 19.7446 0.00645458 19.4175 0.224636 19.1994L9.04674 10.2523L0.224636 1.30519C0.00645458 1.09033 -0.0599484 0.76323 0.0570473 0.474614C0.177205 0.185997 0.449141 0 0.752697 0H19.4657C19.6617 0 19.8546 0.0801712 19.9969 0.221273L29.1415 9.49227L29.3597 9.71355C29.5747 9.93802 29.6411 10.2619 29.5241 10.5473Z" fill="#00AD8C"/>
<path d="M38.5741 29.5254C38.4539 29.814 38.1788 30 37.8753 30H19.1559C18.9599 30 18.767 29.9198 18.6279 29.7787L9.48957 20.5109L9.27139 20.2896C9.05637 20.0716 8.98997 19.7445 9.10696 19.4591C9.22712 19.1705 9.49906 18.9845 9.80261 18.9845H18.8461L26.6943 11.0219H28.8255C28.8286 11.0219 28.8286 11.0219 28.8286 11.0219L19.6903 20.2896C19.5386 20.4372 19.352 20.5109 19.1559 20.5109H11.6208L19.4721 28.4735H36.0539L27.9844 20.2896C27.8421 20.1453 27.7662 19.9529 27.7662 19.7477C27.7662 19.5425 27.8452 19.35 27.9844 19.2057L36.0539 11.0219H28.8286C29.1322 11.0186 29.4041 10.8327 29.5243 10.5472C29.6381 10.2618 29.5749 9.93794 29.3599 9.71346L29.1417 9.49219H37.8721C38.1756 9.49219 38.4507 9.67818 38.5709 9.96359C38.6879 10.2522 38.6215 10.5793 38.4065 10.8006L29.5844 19.7477L38.4065 28.6948C38.6215 28.9129 38.6879 29.24 38.5741 29.5254Z" fill="#021B51"/>
</svg>
